<svg viewBox="0 0 100 100" fill="none" xmlns="http://www.w3.org/2000/svg">
  <!-- Bag shape - Lhesta Mall favicon -->
  <path d="M32 30H68C73 30 75 32 76 36L84 84C85 89 82 92 76 92H24C18 92 15 89 16 84L24 36C25 32 27 30 32 30Z" fill="#1a1a1a"/>
  <path d="M40 30V24C40 18 44 14 50 14C56 14 60 18 60 24V30" stroke="#1a1a1a" stroke-width="5" stroke-linecap="round"/>
  <g transform="rotate(-10, 50, 60)">
    <path d="M40 45H48V70H62V78H40V45Z" fill="#fff"/>
    <circle cx="62" cy="45" r="4" fill="#fff"/>
  </g>
</svg>
